<mxfile host="app.diagrams.net" modified="2023-10-02T20:22:37.024Z" agent="Mozilla/5.0 (Macintosh; Intel Mac OS X 10_15_7) AppleWebKit/537.36 (KHTML, like Gecko) Chrome/117.0.0.0 Safari/537.36" version="22.0.1" etag="Hw7daktnPmLIu8R8ULr3" type="github">
  <diagram name="Page-1" id="M70uOt0q9Moy44md8u-y">
    <mxGraphModel>
      <root>
        <mxCell id="0" />
        <mxCell id="1" parent="0" />
      </root>
    </mxGraphModel>
  </diagram>
</mxfile>
